<?xml version="1.0" standalone="no"?>
<!DOCTYPE svg PUBLIC "-//W3C//DTD SVG 1.0//EN" "http://www.w3.org/TR/2001/REC-SVG-20010904/DTD/svg10.dtd">
<svg xmlns="http://www.w3.org/2000/svg" xmlns:xlink="http://www.w3.org/1999/xlink" id="body_1" width="1024" height="768">

<g transform="matrix(32 0 0 32 128 -0)">
    <path d="M22.351 8.019L15.981 1.6490002C 13.782351 -0.54963636 10.217649 -0.54963636 8.019 1.6490002L8.019 1.6490002L1.6490002 8.019C -0.54963636 10.217649 -0.54963636 13.782351 1.6490002 15.981L1.6490002 15.981L8.019 22.351C 10.217649 24.549637 13.782351 24.549637 15.981 22.351L15.981 22.351L22.351 15.981C 24.549637 13.782351 24.549637 10.217649 22.351 8.019zM12 15.953C 10.5877285 15.953 9.282737 15.199562 8.576601 13.9765C 7.870466 12.753437 7.870466 11.246562 8.576601 10.0234995C 9.282738 8.800437 10.5877285 8.047 12 8.047C 14.183182 8.047 15.953 9.816818 15.953 12C 15.953 14.183182 14.183182 15.953 12 15.953z" stroke="none" fill="#000000" fill-rule="nonzero" />
</g>
</svg>